<svg width="123" height="95" viewBox="0 0 123 95" fill="none" xmlns="http://www.w3.org/2000/svg">
<path d="M0.000311191 58.582C0.191694 58.4806 0.375607 58.3107 0.575703 58.2886C1.62379 58.1741 2.67562 58.0972 3.75452 58.0048V0.869826C2.79729 0.791095 1.83789 0.731658 0.884404 0.621807C0.600909 0.589132 0.333597 0.415488 0.0588151 0.30626C0.328306 0.207612 0.597175 0.0249432 0.8676 0.0227649C3.6929 0.00191511 6.51883 0.0255656 9.34413 0.00627178C13.5362 -0.0223578 16.8958 1.69946 19.5739 4.84529C22.4683 8.24505 23.9863 12.293 24.9594 16.5719C26.3115 22.5178 26.5116 28.5437 26.0831 34.6051C25.7607 39.1628 24.9584 43.619 23.2273 47.8699C21.9813 50.9292 20.3024 53.7041 17.7376 55.8619C15.4995 57.7449 12.935 58.8101 9.99265 58.8375C6.81415 58.8671 3.63502 58.8462 0.456206 58.8459C0.349156 58.8459 0.242106 58.8288 0.135057 58.8198C0.0899342 58.7404 0.0451227 58.6611 0 58.5817L0.000311191 58.582ZM9.77513 57.9133C11.7664 57.8968 13.3579 57.1462 14.6219 55.7234C16.1063 54.0523 16.9263 52.029 17.54 49.9182C18.8435 45.4355 19.1943 40.8149 19.4034 36.1862C19.7065 29.4764 19.6352 22.7702 18.8918 16.0852C18.5672 13.1665 18.0827 10.2771 17.0595 7.50628C16.4284 5.79753 15.6529 4.16596 14.344 2.85678C13.093 1.60548 11.5803 0.97003 9.77513 0.968163V57.9136V57.9133Z" fill="#0E1FD8" style="fill:#0E1FD8;fill:color(display-p3 0.0549 0.1216 0.8471);fill-opacity:1;"/>
<path d="M52.0465 57.9927C53.2807 58.1259 54.4417 58.2445 55.6 58.3861C55.7354 58.4026 55.8555 58.5466 55.9824 58.6313C55.8496 58.7032 55.7167 58.8376 55.5835 58.8379C51.2116 58.8476 46.84 58.8451 42.4681 58.8401C42.3654 58.8401 42.2627 58.7928 42.16 58.7676C42.1335 58.7032 42.1068 58.6391 42.0803 58.5746C42.2776 58.4757 42.4681 58.3111 42.6737 58.2883C43.7019 58.176 44.7345 58.1013 45.8694 58.0042C45.1415 53.5813 44.4208 49.2038 43.6957 44.7982H34.734C34.0136 49.1689 33.2917 53.548 32.5582 57.9989C33.6576 58.0945 34.7091 58.1729 35.7563 58.2893C35.9408 58.3098 36.1076 58.4906 36.2825 58.5974C36.1123 58.6808 35.9424 58.836 35.7718 58.837C33.1445 58.8522 30.5168 58.8522 27.8894 58.837C27.721 58.836 27.5533 58.6842 27.3853 58.6027C27.5415 58.5217 27.6912 58.3876 27.8548 58.3683C28.9904 58.233 30.129 58.1215 31.305 57.9983C31.6716 55.7531 32.0341 53.5399 32.3939 51.3264C33.0365 47.3699 33.6782 43.4134 34.318 39.4563C35.053 34.912 35.7837 30.3671 36.52 25.8227C37.2388 21.3867 37.9617 16.951 38.6834 12.5156C39.3269 8.55943 39.9835 4.60513 40.6006 0.644602C40.6815 0.122112 40.8925 0.000747793 41.3683 0.000125412C42.6812 -0.00111935 42.6657 -0.0145005 42.8692 1.25111C43.8252 7.18863 44.7923 13.1243 45.7514 19.0615C46.6119 24.3891 47.4608 29.7189 48.3262 35.0458C49.1879 40.3507 50.0676 45.6524 50.9315 50.957C51.3102 53.2819 51.6693 55.6096 52.0465 57.9927ZM43.5149 43.6328C42.1055 34.8165 40.7048 26.0549 39.3042 17.2936C39.2687 17.2983 39.2332 17.3033 39.1977 17.3079C37.7709 26.0739 36.3441 34.8398 34.9126 43.6328H43.5149Z" fill="#0E1FD8" style="fill:#0E1FD8;fill:color(display-p3 0.0549 0.1216 0.8471);fill-opacity:1;"/>
<path d="M74.2993 48.9757C73.6147 49.6587 73.0717 50.4946 72.6824 51.3585C71.5453 53.5368 70.4851 56.6982 70.2772 57.8844H63.361C65.529 48.2132 67.7002 38.6012 69.8359 28.981C71.971 19.3646 74.1898 9.76625 76.2738 0.0527344H59.2809C58.9374 5.5437 59.1263 4.37144 58.7725 10.0308C59.1219 10.0712 59.6033 9.89694 59.7621 9.69436C60.4467 9.0113 60.9897 8.17544 61.379 7.31157C62.5665 5.03646 63.5468 2.00795 63.6831 0.959233H70.1642C67.9986 10.6578 65.8259 20.2696 63.7111 29.8938C61.5981 39.5102 59.3889 49.1064 57.3198 58.8028H74.7667L74.787 58.5034C75.1206 53.1462 74.937 54.2581 75.2883 48.6393C74.9388 48.5988 74.4574 48.7731 74.2987 48.9757H74.2993Z" fill="#0E1FD8" style="fill:#0E1FD8;fill:color(display-p3 0.0549 0.1216 0.8471);fill-opacity:1;"/>
<path d="M97.3545 48.9757C96.6699 49.6587 96.1269 50.4946 95.7376 51.3585C94.6005 53.5368 93.5402 56.6982 93.3324 57.8844H86.4161C88.5842 48.2132 90.7554 38.6012 92.8911 28.981C95.0262 19.3646 97.245 9.76625 99.329 0.0527344H82.3361C81.9926 5.5437 82.1815 4.37144 81.8276 10.0308C82.1771 10.0712 82.6585 9.89694 82.8172 9.69436C83.5018 9.0113 84.0449 8.17544 84.4342 7.31157C85.6217 5.03646 86.6019 2.00795 86.7382 0.959233H93.2194C91.0538 10.6578 88.8811 20.2696 86.7662 29.8938C84.6532 39.5102 82.4441 49.1064 80.375 58.8028H97.8219L97.8421 58.5034C98.1757 53.1462 97.9921 54.2581 98.3435 48.6393C97.994 48.5988 97.5126 48.7731 97.3539 48.9757H97.3545Z" fill="#0E1FD8" style="fill:#0E1FD8;fill:color(display-p3 0.0549 0.1216 0.8471);fill-opacity:1;"/>
<path d="M120.145 48.9757C119.46 49.6587 118.917 50.4946 118.528 51.3585C117.391 53.5368 116.33 56.6982 116.122 57.8844H109.206C111.374 48.2132 113.545 38.6012 115.681 28.981C117.816 19.3646 120.035 9.76625 122.119 0.0527344H105.126C104.783 5.5437 104.972 4.37144 104.618 10.0308C104.967 10.0712 105.449 9.89694 105.607 9.69436C106.292 9.0113 106.835 8.17544 107.224 7.31157C108.412 5.03646 109.392 2.00795 109.528 0.959233H116.009C113.844 10.6578 111.671 20.2696 109.556 29.8938C107.443 39.5102 105.234 49.1064 103.165 58.8028H120.612L120.632 58.5034C120.966 53.1462 120.782 54.2581 121.134 48.6393C120.784 48.5988 120.303 48.7731 120.144 48.9757H120.145Z" fill="#0E1FD8" style="fill:#0E1FD8;fill:color(display-p3 0.0549 0.1216 0.8471);fill-opacity:1;"/>
<path d="M28.958 68.6778V68.8844L27.2707 69.0223V89.9922C27.2244 91.7598 26.8285 93.0111 26.0829 93.7455C25.3367 94.4805 24.3785 94.8474 23.2078 94.8474C21.7617 94.8474 20.6138 94.4341 19.7645 93.6076C18.915 92.7811 18.4905 91.4847 18.4905 89.7168V69.0226L16.8032 68.8847V68.6781H22.7258V68.8847L21.0731 69.0226V89.6135C21.0731 90.2564 21.1129 90.8533 21.1935 91.4041C21.2738 91.9549 21.4172 92.4316 21.6239 92.833C21.8305 93.2351 22.1174 93.5507 22.4846 93.78C22.8515 94.0097 23.3224 94.1242 23.8965 94.1242C24.8142 94.1242 25.52 93.7688 26.0142 93.0568C26.5077 92.3454 26.7545 91.1974 26.7545 89.6135V69.0226L25.1017 68.8847V68.6781H28.9583L28.958 68.6778Z" fill="#0E1FD8" style="fill:#0E1FD8;fill:color(display-p3 0.0549 0.1216 0.8471);fill-opacity:1;"/>
<path d="M40.8535 68.6778V68.8844L39.2007 69.0223V94.5026H37.9613L31.5912 75.1512V94.1581L33.2785 94.2959V94.5026H29.4219V94.2959L31.0746 94.1581V69.0223L29.4219 68.8844V68.6778H33.2785V68.8844L32.4519 68.9532L38.6842 88.4079V69.022L36.9969 68.8841V68.6775H40.8535V68.6778Z" fill="#0E1FD8" style="fill:#0E1FD8;fill:color(display-p3 0.0549 0.1216 0.8471);fill-opacity:1;"/>
<path d="M68.621 69.1004C68.696 69.5989 69.1319 70.9342 69.6585 71.9428C69.8343 72.3333 70.0798 72.7111 70.3895 73.0201C70.461 73.1116 70.6789 73.1904 70.8366 73.172C70.677 70.6181 70.7616 71.1415 70.6079 68.6744L60.745 68.6706C60.745 68.6706 60.7441 68.8589 60.7435 68.918C61.2871 68.9908 61.8308 69.0637 62.3645 69.1352C62.3654 69.1477 62.367 93.8575 62.367 93.8575C62.3315 93.9767 62.2683 94.0626 62.1619 94.1145C62.011 94.1329 60.8502 94.2738 60.7397 94.2872C60.7407 94.2941 60.7659 94.4839 60.7684 94.5026H70.6051L70.607 94.455C70.762 91.9742 70.6767 92.5038 70.8366 89.9458C70.6789 89.9275 70.461 90.0062 70.3895 90.098C70.0798 90.4067 69.8343 90.7845 69.6585 91.175C69.1235 92.1998 68.682 93.5618 68.6175 94.0408C68.5936 94.0373 68.5768 94.0358 68.5687 94.0361C67.4117 94.0815 66.2522 94.0629 65.1014 94.0629L65.0998 81.1942H68.0334C68.1031 81.2091 68.1704 81.2421 68.199 81.2785C68.3854 81.4646 68.5332 81.6918 68.639 81.927C68.943 82.5093 69.1973 83.2733 69.257 83.5991C69.2664 83.6299 69.285 83.6962 69.285 83.6962C69.3037 83.6993 69.3641 83.6999 69.3641 83.6999C69.3653 83.6996 69.3653 83.6601 69.3641 83.6408C69.3647 81.309 69.3831 80.0011 69.3912 78.1218C69.3912 78.1218 69.314 78.1218 69.2857 78.1265C69.2857 78.1265 69.2511 78.2457 69.2328 78.3026C69.1447 78.6698 68.9119 79.3389 68.639 79.8617C68.5332 80.0969 68.3854 80.3241 68.199 80.5102C68.1701 80.5469 68.1025 80.5802 68.0322 80.5951H65.1135L65.1176 69.0994H68.6138V69.1004H68.621Z" fill="#0E1FD8" style="fill:#0E1FD8;fill:color(display-p3 0.0549 0.1216 0.8471);fill-opacity:1;"/>
<path d="M47.386 94.296V94.5026H41.4634V94.296L43.1507 94.1581V69.0223L41.4634 68.8844V68.6778H47.386V68.8844L45.7332 69.0223V94.1581L47.386 94.296Z" fill="#0E1FD8" style="fill:#0E1FD8;fill:color(display-p3 0.0549 0.1216 0.8471);fill-opacity:1;"/>
<path d="M60.3228 68.6778V68.8499L58.601 69.022L54.469 94.5023H53.6771L49.5451 69.022L47.8232 68.8499V68.6778H53.8834V68.8844L52.2306 69.0223L55.1574 87.1684L58.1187 69.0223L56.4659 68.8844V68.6778H60.3225H60.3228Z" fill="#0E1FD8" style="fill:#0E1FD8;fill:color(display-p3 0.0549 0.1216 0.8471);fill-opacity:1;"/>
<path d="M82.2575 92.7465C82.2575 93.1141 82.3091 93.4007 82.4121 93.6073C82.5154 93.8139 82.6533 93.9689 82.8254 94.0722C82.9975 94.1752 83.2041 94.2387 83.445 94.2614C83.6861 94.2844 83.9553 94.296 84.2541 94.296V94.5026H82.2571C81.3388 94.5026 80.6785 94.2848 80.277 93.8485C79.8753 93.4125 79.6746 92.8844 79.6746 92.2645V85.8599C79.6746 84.7352 79.4334 83.8574 78.9514 83.2257C78.469 82.5946 77.6083 82.2787 76.3688 82.2787H75.6801V94.1581L77.7116 94.296V94.5026H71.4448V94.296L73.1321 94.1581V69.0223L71.4448 68.8844V68.6778H75.6801C76.6899 68.6778 77.6024 68.7758 78.4174 68.9706C79.2321 69.1661 79.9204 69.5043 80.4834 69.9864C81.0454 70.4684 81.482 71.1113 81.7916 71.9145C82.1016 72.7183 82.2565 73.7281 82.2565 74.9446C82.2565 76.9648 81.8831 78.5429 81.1375 79.6793C80.3912 80.8155 79.3522 81.5788 78.0212 81.9691C78.5947 82.0378 79.1403 82.1872 79.6568 82.4166C80.1731 82.6462 80.6209 82.9621 80.9996 83.3635C81.3787 83.7653 81.6824 84.2706 81.912 84.8784C82.1414 85.4868 82.2565 86.2041 82.2565 87.0303V92.7462L82.2575 92.7465ZM75.6807 81.9003C76.1628 81.9003 76.6218 81.8088 77.0581 81.6249C77.4941 81.4413 77.8846 81.0971 78.2288 80.5917C78.573 80.0873 78.8428 79.3812 79.0379 78.4741C79.2324 77.5676 79.3304 76.391 79.3304 74.9446C79.3304 73.5906 79.2212 72.517 79.0033 71.725C78.7849 70.933 78.498 70.3424 78.1426 69.9518C77.7863 69.5616 77.3904 69.3145 76.9545 69.2115C76.5182 69.1082 76.0937 69.0565 75.6804 69.0565V81.9L75.6807 81.9003Z" fill="#0E1FD8" style="fill:#0E1FD8;fill:color(display-p3 0.0549 0.1216 0.8471);fill-opacity:1;"/>
<path d="M89.4879 68.609C88.9595 68.609 88.5521 68.8502 88.2655 69.3322C87.9783 69.8146 87.8351 70.6408 87.8351 71.8115C87.8351 73.0513 87.9954 74.17 88.3172 75.1686C88.6386 76.1672 89.0404 77.1089 89.5224 77.9923C90.0045 78.8764 90.5263 79.731 91.0893 80.5575C91.6513 81.384 92.1741 82.2336 92.6561 83.1055C93.1381 83.9781 93.5396 84.902 93.861 85.8776C94.1825 86.8535 94.3434 87.9495 94.3434 89.166C94.3434 89.9467 94.2401 90.6808 94.0334 91.3695C93.8268 92.0582 93.5284 92.6606 93.1381 93.1772C92.7476 93.6935 92.2541 94.1014 91.6575 94.3996C91.0603 94.6977 90.3717 94.8474 89.5915 94.8474C88.6498 94.8474 87.8812 94.646 87.2846 94.2446C86.6872 93.8435 86.2285 93.4473 85.907 93.0568L85.5628 94.8474H85.2874V86.5488H85.8037C85.8037 87.2839 85.8781 88.1157 86.0274 89.0452C86.1765 89.9751 86.4065 90.8476 86.7161 91.6623C87.026 92.4773 87.4219 93.166 87.9042 93.7283C88.3863 94.291 88.9598 94.572 89.626 94.572C90.2923 94.572 90.8192 94.2564 91.21 93.625C91.5999 92.9939 91.7954 92.1618 91.7954 91.1286C91.7954 89.8664 91.6345 88.707 91.3133 87.6511C90.9916 86.5955 90.5901 85.6081 90.1081 84.6898C89.626 83.7718 89.1036 82.8883 88.5412 82.0388C87.9786 81.1898 87.4564 80.3403 86.9744 79.4907C86.4924 78.6418 86.0903 77.7689 85.7695 76.8736C85.4477 75.9783 85.2871 75.0261 85.2871 74.0156C85.2871 73.2355 85.3904 72.5004 85.5971 71.8118C85.8034 71.1231 86.0962 70.5207 86.4752 70.0044C86.854 69.4878 87.3189 69.0805 87.8697 68.782C88.4205 68.4842 89.0404 68.3345 89.729 68.3345C90.119 68.3345 90.4921 68.398 90.8481 68.5237C91.2038 68.6501 91.5368 68.811 91.8467 69.0061C92.1566 69.2015 92.4373 69.4078 92.6903 69.6257C92.9427 69.8441 93.1606 70.0564 93.3445 70.2627L93.7235 68.3345H93.9989V76.6328H93.5169C93.5169 75.8296 93.4307 74.9626 93.2586 74.0334C93.0865 73.1035 92.8282 72.2375 92.4837 71.4337C92.1395 70.6305 91.7144 69.959 91.2097 69.4193C90.7043 68.8804 90.1305 68.6103 89.4879 68.6103V68.609Z" fill="#0E1FD8" style="fill:#0E1FD8;fill:color(display-p3 0.0549 0.1216 0.8471);fill-opacity:1;"/>
<path d="M103.101 69.1004C103.176 69.5989 103.612 70.9342 104.138 71.9428C104.314 72.3333 104.56 72.7111 104.869 73.0201C104.941 73.1116 105.159 73.1904 105.317 73.172C105.157 70.6181 105.242 71.1415 105.088 68.6744L95.225 68.6706C95.225 68.6706 95.2241 68.8589 95.2235 68.918C95.7671 68.9908 96.3108 69.0637 96.8445 69.1352C96.8454 69.1477 96.8469 93.8575 96.8469 93.8575C96.8115 93.9767 96.7483 94.0626 96.6419 94.1145C96.4909 94.1329 95.3302 94.2738 95.2197 94.2872C95.2207 94.2941 95.2459 94.4839 95.2484 94.5026H105.085L105.087 94.455C105.242 91.9742 105.157 92.5038 105.317 89.9458C105.159 89.9275 104.941 90.0062 104.869 90.098C104.56 90.4067 104.314 90.7845 104.138 91.175C103.604 92.1998 103.162 93.5618 103.098 94.0408C103.074 94.0373 103.057 94.0358 103.049 94.0361C101.892 94.0815 100.732 94.0629 99.5814 94.0629L99.5798 81.1942H102.513C102.583 81.2091 102.65 81.2421 102.679 81.2785C102.865 81.4646 103.013 81.6918 103.119 81.927C103.423 82.5093 103.677 83.2733 103.737 83.5991C103.746 83.6299 103.765 83.6962 103.765 83.6962C103.784 83.6993 103.844 83.6999 103.844 83.6999C103.845 83.6996 103.845 83.6601 103.844 83.6408C103.845 81.309 103.863 80.0011 103.871 78.1218C103.871 78.1218 103.794 78.1218 103.766 78.1265C103.766 78.1265 103.731 78.2457 103.713 78.3026C103.625 78.6698 103.392 79.3389 103.119 79.8617C103.013 80.0969 102.865 80.3241 102.679 80.5102C102.65 80.5469 102.582 80.5802 102.512 80.5951H99.5935L99.5976 69.0994H103.094V69.1004H103.101Z" fill="#0E1FD8" style="fill:#0E1FD8;fill:color(display-p3 0.0549 0.1216 0.8471);fill-opacity:1;"/>
</svg>
