<svg width="2275" height="391" viewBox="0 0 2275 391" fill="none" xmlns="http://www.w3.org/2000/svg">
<path d="M2041.39 4.3796C2033.62 4.3796 2027.63 7.92581 2023.41 15.0137C2019.19 22.1061 2017.09 34.2547 2017.09 51.4687C2017.09 69.6985 2019.44 86.1484 2024.17 100.832C2028.9 115.516 2034.81 129.362 2041.89 142.352C2048.98 155.352 2056.66 167.917 2064.93 180.07C2073.2 192.224 2080.88 204.716 2087.97 217.537C2095.06 230.367 2100.96 243.953 2105.69 258.298C2110.42 272.647 2112.78 288.763 2112.78 306.65C2112.78 318.13 2111.26 328.925 2108.22 339.051C2105.19 349.177 2100.8 358.035 2095.06 365.631C2089.32 373.222 2082.06 379.221 2073.29 383.605C2064.51 387.988 2054.38 390.189 2042.91 390.189C2029.06 390.189 2017.76 387.229 2008.99 381.326C2000.21 375.428 1993.46 369.603 1988.73 363.86L1983.67 390.189H1979.62V268.168H1987.21C1987.21 278.976 1988.31 291.207 1990.5 304.874C1992.7 318.547 1996.08 331.377 2000.63 343.356C2005.19 355.34 2011.01 365.467 2018.1 373.735C2025.19 382.008 2033.62 386.14 2043.42 386.14C2053.22 386.14 2060.96 381.5 2066.71 372.216C2072.44 362.936 2075.32 350.701 2075.32 335.509C2075.32 316.95 2072.95 299.9 2068.23 284.375C2063.5 268.854 2057.59 254.335 2050.51 240.832C2043.42 227.333 2035.74 214.343 2027.47 201.851C2019.19 189.368 2011.52 176.877 2004.43 164.385C1997.34 151.902 1991.43 139.067 1986.71 125.903C1981.98 112.738 1979.62 98.7363 1979.62 83.8788C1979.62 72.4074 1981.14 61.5994 1984.18 51.4733C1987.21 41.3471 1991.52 32.4885 1997.09 24.8973C2002.66 17.3016 2009.49 11.3119 2017.59 6.92375C2025.69 2.54475 2034.81 0.34375 2044.93 0.34375C2050.67 0.34375 2056.15 1.27724 2061.39 3.12585C2066.62 4.98361 2071.51 7.34927 2076.07 10.2183C2080.63 13.0919 2084.76 16.1255 2088.48 19.3286C2092.19 22.5408 2095.39 25.6615 2098.09 28.6953L2103.67 0.34375H2107.72V122.361H2100.63C2100.63 110.551 2099.36 97.8029 2096.83 84.1397C2094.3 70.4673 2090.5 57.733 2085.44 45.9138C2080.38 34.1037 2074.13 24.2293 2066.7 16.2949C2059.27 8.36968 2050.84 4.39792 2041.39 4.39792V4.3796Z" fill="#0E1FD8" style="fill:#0E1FD8;fill:color(display-p3 0.0549 0.1216 0.8471);fill-opacity:1;"/>
<path d="M1734.56 11.6053C1735.66 18.9357 1742.07 38.5703 1749.81 53.4003C1752.4 59.1429 1756.01 64.6978 1760.56 69.2415C1761.61 70.5868 1764.82 71.7445 1767.14 71.4746C1764.79 33.9213 1766.03 41.6177 1763.77 5.3411L1618.75 5.28613C1618.75 5.28613 1618.74 8.05445 1618.73 8.92384C1626.72 9.99457 1634.72 11.0653 1642.56 12.1177C1642.58 12.3007 1642.6 375.634 1642.6 375.634C1642.08 377.387 1641.15 378.65 1639.58 379.414C1637.36 379.684 1620.3 381.757 1618.67 381.954C1618.69 382.054 1619.06 384.845 1619.09 385.12H1763.73L1763.76 384.42C1766.04 347.942 1764.79 355.73 1767.14 318.117C1764.82 317.847 1761.61 319.005 1760.56 320.355C1756.01 324.894 1752.4 330.449 1749.81 336.191C1741.95 351.259 1735.45 371.287 1734.51 378.33C1734.16 378.279 1733.91 378.256 1733.79 378.261C1716.78 378.929 1699.73 378.654 1682.81 378.654L1682.78 189.433H1725.92C1726.94 189.653 1727.93 190.138 1728.35 190.673C1731.09 193.409 1733.27 196.75 1734.82 200.209C1739.29 208.77 1743.03 220.004 1743.91 224.794C1744.05 225.247 1744.32 226.222 1744.32 226.222C1744.6 226.268 1745.49 226.277 1745.49 226.277C1745.5 226.272 1745.5 225.691 1745.49 225.408C1745.49 191.122 1745.76 171.89 1745.88 144.257C1745.88 144.257 1744.75 144.257 1744.33 144.325C1744.33 144.325 1743.82 146.078 1743.55 146.915C1742.26 152.314 1738.84 162.152 1734.82 169.84C1733.27 173.299 1731.09 176.639 1728.35 179.375C1727.93 179.915 1726.93 180.405 1725.9 180.625H1682.98L1683.04 11.5915H1734.45V11.6053H1734.56Z" fill="#0E1FD8" style="fill:#0E1FD8;fill:color(display-p3 0.0549 0.1216 0.8471);fill-opacity:1;"/>
<path d="M2241.55 11.6053C2242.66 18.9357 2249.07 38.5703 2256.81 53.4003C2259.4 59.1429 2263.01 64.6978 2267.56 69.2415C2268.61 70.5868 2271.81 71.7445 2274.13 71.4746C2271.79 33.9213 2273.03 41.6177 2270.77 5.3411L2125.75 5.28613C2125.75 5.28613 2125.73 8.05445 2125.72 8.92384C2133.72 9.99457 2141.71 11.0653 2149.56 12.1177C2149.57 12.3007 2149.6 375.634 2149.6 375.634C2149.07 377.387 2148.15 378.65 2146.58 379.414C2144.36 379.684 2127.29 381.757 2125.67 381.954C2125.68 382.054 2126.05 384.845 2126.09 385.12H2270.73L2270.76 384.42C2273.04 347.942 2271.78 355.73 2274.13 318.117C2271.81 317.847 2268.61 319.005 2267.56 320.355C2263.01 324.894 2259.4 330.449 2256.81 336.191C2248.94 351.259 2242.45 371.287 2241.5 378.33C2241.15 378.279 2240.9 378.256 2240.79 378.261C2223.77 378.929 2206.72 378.654 2189.8 378.654L2189.78 189.433H2232.92C2233.94 189.653 2234.93 190.138 2235.35 190.673C2238.09 193.409 2240.26 196.75 2241.82 200.209C2246.29 208.77 2250.03 220.004 2250.91 224.794C2251.04 225.247 2251.32 226.222 2251.32 226.222C2251.59 226.268 2252.48 226.277 2252.48 226.277C2252.5 226.272 2252.5 225.691 2252.48 225.408C2252.49 191.122 2252.76 171.89 2252.88 144.257C2252.88 144.257 2251.74 144.257 2251.33 144.325C2251.33 144.325 2250.82 146.078 2250.55 146.915C2249.26 152.314 2245.83 162.152 2241.82 169.84C2240.26 173.299 2238.09 176.639 2235.35 179.375C2234.92 179.915 2233.93 180.405 2232.9 180.625H2189.98L2190.04 11.5915H2241.45V11.6053H2241.55Z" fill="#0E1FD8" style="fill:#0E1FD8;fill:color(display-p3 0.0549 0.1216 0.8471);fill-opacity:1;"/>
<path d="M1326.27 5.3913V8.42967L1301.97 10.4567V385.12H1283.74L1190.08 100.576V380.055L1214.89 382.082V385.12H1158.18V382.082L1182.48 380.055V10.4567L1158.18 8.42967V5.3913H1214.89V8.42967L1202.73 9.44089L1294.37 295.504V10.4521L1269.56 8.42509V5.38672H1326.27V5.3913Z" fill="#0E1FD8" style="fill:#0E1FD8;fill:color(display-p3 0.0549 0.1216 0.8471);fill-opacity:1;"/>
<path d="M1151.35 5.3916V8.42997L1126.55 10.457V318.799C1125.86 344.79 1120.04 363.189 1109.08 373.987C1098.11 384.795 1084.02 390.19 1066.8 390.19C1045.54 390.19 1028.66 384.114 1016.17 371.96C1003.68 359.807 997.44 340.745 997.44 314.75V10.4616L972.63 8.43455V5.39618H1059.72V8.43455L1035.41 10.4616V313.23C1035.41 322.684 1036 331.46 1037.19 339.559C1038.37 347.658 1040.48 354.669 1043.51 360.571C1046.55 366.483 1050.77 371.123 1056.17 374.495C1061.56 377.872 1068.49 379.556 1076.93 379.556C1090.42 379.556 1100.8 374.331 1108.07 363.861C1115.33 353.401 1118.95 336.521 1118.95 313.23V10.4616L1094.65 8.43455V5.39618H1151.36L1151.35 5.3916Z" fill="#0E1FD8" style="fill:#0E1FD8;fill:color(display-p3 0.0549 0.1216 0.8471);fill-opacity:1;"/>
<path d="M1422.32 382.082V385.12H1335.23V382.082L1360.04 380.055V10.457L1335.23 8.42997V5.3916H1422.32V8.42997L1398.02 10.457V380.055L1422.32 382.082Z" fill="#0E1FD8" style="fill:#0E1FD8;fill:color(display-p3 0.0549 0.1216 0.8471);fill-opacity:1;"/>
<path d="M1612.54 5.3916V7.92201L1587.23 10.4524L1526.47 385.116H1514.82L1454.07 10.4524L1428.75 7.92201V5.3916H1517.86V8.42997L1493.56 10.457L1536.59 277.279L1580.13 10.457L1555.83 8.42997V5.3916H1612.54H1612.54Z" fill="#0E1FD8" style="fill:#0E1FD8;fill:color(display-p3 0.0549 0.1216 0.8471);fill-opacity:1;"/>
<path d="M1935.07 359.299C1935.07 364.703 1935.83 368.917 1937.34 371.956C1938.86 374.994 1940.89 377.273 1943.42 378.792C1945.95 380.306 1948.99 381.24 1952.53 381.574C1956.07 381.913 1960.03 382.082 1964.43 382.082V385.12H1935.06C1921.56 385.12 1911.85 381.917 1905.95 375.502C1900.04 369.091 1897.09 361.326 1897.09 352.211V258.038C1897.09 241.501 1893.54 228.593 1886.45 219.304C1879.36 210.024 1866.71 205.38 1848.48 205.38H1838.35V380.055L1868.22 382.082V385.12H1776.08V382.082L1800.89 380.055V10.457L1776.08 8.42997V5.3916H1838.35C1853.2 5.3916 1866.62 6.83304 1878.6 9.69746C1890.58 12.571 1900.7 17.5448 1908.98 24.6327C1917.24 31.7205 1923.66 41.174 1928.22 52.9841C1932.78 64.8033 1935.05 79.6517 1935.05 97.5383C1935.05 127.244 1929.56 150.448 1918.6 167.158C1907.63 183.865 1892.35 195.089 1872.78 200.827C1881.21 201.838 1889.23 204.034 1896.83 207.407C1904.42 210.784 1911 215.428 1916.57 221.331C1922.15 227.238 1926.61 234.669 1929.99 243.606C1933.36 252.551 1935.05 263.098 1935.05 275.247V359.295L1935.07 359.299ZM1838.36 199.816C1845.45 199.816 1852.2 198.47 1858.62 195.766C1865.03 193.066 1870.77 188.006 1875.83 180.575C1880.89 173.157 1884.86 162.775 1887.73 149.437C1890.59 136.107 1892.03 118.806 1892.03 97.5383C1892.03 77.6292 1890.42 61.8428 1887.22 50.1975C1884.01 38.5522 1879.79 29.8674 1874.56 24.1248C1869.32 18.3868 1863.5 14.7537 1857.09 13.2391C1850.68 11.7199 1844.44 10.9604 1838.36 10.9604V199.811L1838.36 199.816Z" fill="#0E1FD8" style="fill:#0E1FD8;fill:color(display-p3 0.0549 0.1216 0.8471);fill-opacity:1;"/>
<path d="M339.724 378.535C347.779 379.405 355.358 380.179 362.918 381.103C363.802 381.21 364.586 382.151 365.415 382.703C364.547 383.173 363.68 384.05 362.811 384.052C334.274 384.115 305.739 384.099 277.202 384.066C276.532 384.066 275.862 383.758 275.191 383.593C275.019 383.173 274.844 382.754 274.671 382.334C275.959 381.688 277.202 380.613 278.545 380.465C285.256 379.732 291.996 379.244 299.404 378.61C294.653 349.741 289.948 321.167 285.215 292.411H226.72C222.018 320.94 217.305 349.523 212.518 378.576C219.694 379.199 226.558 379.711 233.393 380.471C234.597 380.605 235.686 381.785 236.827 382.482C235.716 383.026 234.607 384.04 233.494 384.046C216.344 384.146 199.193 384.146 182.043 384.046C180.944 384.04 179.849 383.049 178.752 382.517C179.772 381.988 180.749 381.113 181.818 380.987C189.23 380.103 196.662 379.376 204.338 378.572C206.731 363.916 209.097 349.47 211.445 335.022C215.64 309.197 219.828 283.372 224.004 257.543C228.802 227.881 233.571 198.215 238.377 168.553C243.069 139.597 247.788 110.644 252.498 81.6929C256.699 55.8699 260.985 30.059 265.013 4.2075C265.541 0.797062 266.918 0.00488106 270.024 0.000818599C278.594 -0.00730633 278.492 -0.0946492 279.82 8.16637C286.06 46.9223 292.374 85.666 298.634 124.42C304.25 159.195 309.791 193.984 315.44 228.754C321.065 263.381 326.807 297.987 332.446 332.611C334.918 347.786 337.262 362.98 339.724 378.535ZM284.035 284.804C274.836 227.257 265.693 170.068 256.551 112.88C256.319 112.911 256.088 112.943 255.856 112.974C246.543 170.192 237.23 227.41 227.886 284.804H284.035Z" fill="#0E1FD8" style="fill:#0E1FD8;fill:color(display-p3 0.0549 0.1216 0.8471);fill-opacity:1;"/>
<path d="M0.00203123 382.382C1.25124 381.72 2.4517 380.611 3.75778 380.467C10.599 379.719 17.4645 379.218 24.5068 378.614V5.67803C18.2588 5.16412 11.9965 4.77616 5.77276 4.05913C3.92231 3.84585 2.17748 2.71243 0.383903 1.99946C2.14295 1.35556 3.89794 0.16323 5.66308 0.149011C24.1046 0.0129187 42.5503 0.167292 60.9918 0.041356C88.3546 -0.145517 110.284 11.0933 127.765 31.627C146.657 53.8182 156.565 80.2405 162.917 108.17C171.743 146.981 173.049 186.314 170.252 225.878C168.147 255.627 162.911 284.715 151.611 312.461C143.478 332.43 132.52 350.543 115.778 364.627C101.17 376.918 84.4302 383.871 65.2249 384.05C44.4779 384.243 23.7268 384.107 2.97779 384.105C2.27904 384.105 1.5803 383.993 0.881555 383.934C0.587026 383.416 0.294529 382.898 0 382.38L0.00203123 382.382ZM63.8051 378.017C76.8029 377.91 87.1907 373.01 95.4415 363.723C105.131 352.816 110.483 339.609 114.488 325.831C122.997 296.571 125.286 266.411 126.651 236.199C128.63 192.401 128.165 148.628 123.312 104.993C121.194 85.9422 118.031 67.0822 111.352 48.9961C107.233 37.8426 102.171 27.1928 93.6276 18.6474C85.4621 10.4799 75.5883 6.33208 63.8051 6.3199V378.019V378.017Z" fill="#0E1FD8" style="fill:#0E1FD8;fill:color(display-p3 0.0549 0.1216 0.8471);fill-opacity:1;"/>
<path d="M484.974 319.679C480.505 324.137 476.961 329.593 474.419 335.232C466.997 349.451 460.077 370.086 458.72 377.829H413.576C427.727 314.702 441.899 251.962 455.84 189.168C469.776 126.399 484.259 63.7476 497.862 0.344727H386.944C384.702 36.1858 385.935 28.5342 383.625 65.4742C385.906 65.7382 389.049 64.6007 390.085 63.2784C394.553 58.8199 398.098 53.364 400.639 47.7253C408.39 32.8749 414.789 13.107 415.678 6.26171H457.983C443.847 69.5671 429.665 132.306 415.861 195.126C402.069 257.895 387.649 320.532 374.144 383.823H488.025L488.157 381.869C490.334 346.901 489.136 354.159 491.429 317.483C489.148 317.219 486.006 318.357 484.97 319.679H484.974Z" fill="#0E1FD8" style="fill:#0E1FD8;fill:color(display-p3 0.0549 0.1216 0.8471);fill-opacity:1;"/>
<path d="M635.459 319.679C630.99 324.137 627.445 329.593 624.904 335.232C617.482 349.451 610.562 370.086 609.205 377.829H564.061C578.212 314.702 592.384 251.962 606.325 189.168C620.261 126.399 634.744 63.7476 648.347 0.344727H537.429C535.187 36.1858 536.42 28.5342 534.11 65.4742C536.391 65.7382 539.534 64.6007 540.57 63.2784C545.038 58.8199 548.583 53.364 551.124 47.7253C558.875 32.8749 565.273 13.107 566.163 6.26171H608.468C594.332 69.5671 580.15 132.306 566.346 195.126C552.554 257.895 538.134 320.532 524.628 383.823H638.509L638.642 381.869C640.819 346.901 639.621 354.159 641.914 317.483C639.633 317.219 636.49 318.357 635.454 319.679H635.459Z" fill="#0E1FD8" style="fill:#0E1FD8;fill:color(display-p3 0.0549 0.1216 0.8471);fill-opacity:1;"/>
<path d="M784.215 319.679C779.747 324.137 776.202 329.593 773.661 335.232C766.239 349.451 759.319 370.086 757.962 377.829H712.818C726.969 314.702 741.141 251.962 755.081 189.168C769.018 126.399 783.5 63.7476 797.104 0.344727H686.186C683.944 36.1858 685.177 28.5342 682.867 65.4742C685.148 65.7382 688.29 64.6007 689.326 63.2784C693.795 58.8199 697.34 53.364 699.881 47.7253C707.632 32.8749 714.03 13.107 714.92 6.26171H757.224C743.089 69.5671 728.907 132.306 715.103 195.126C701.311 257.895 686.891 320.532 673.385 383.823H787.266L787.398 381.869C789.576 346.901 788.377 354.159 790.671 317.483C788.39 317.219 785.247 318.357 784.211 319.679H784.215Z" fill="#0E1FD8" style="fill:#0E1FD8;fill:color(display-p3 0.0549 0.1216 0.8471);fill-opacity:1;"/>
</svg>
