<svg preserveAspectRatio="xMidYMid meet" width="100%" height="100%" overflow="visible" style="display: block;" viewBox="0 0 138.938 96.9705" fill="none" xmlns="http://www.w3.org/2000/svg">
<g id="Group">
<path id="Vector" d="M0.000354051 96.5235C0.218095 96.3563 0.427339 96.0764 0.654994 96.04C1.84744 95.8513 3.04413 95.7246 4.27162 95.5723V1.43277C3.18256 1.30305 2.09102 1.20512 1.00621 1.02412C0.683672 0.970283 0.379542 0.684174 0.0669156 0.504202C0.373523 0.341664 0.679423 0.0406854 0.987093 0.0370962C4.20152 0.00274265 7.41665 0.0417109 10.6311 0.00992101C15.4005 -0.0372511 19.2228 2.79974 22.2698 7.98303C25.5628 13.5847 27.2899 20.2544 28.397 27.3046C29.9353 37.1015 30.163 47.0302 29.6755 57.0174C29.3087 64.527 28.3959 71.8694 26.4263 78.8734C25.0087 83.9142 23.0986 88.4863 20.1805 92.0416C17.6342 95.1442 14.7165 96.8993 11.3689 96.9444C7.75265 96.9931 4.13567 96.9588 0.519038 96.9583C0.397245 96.9583 0.275451 96.9301 0.153658 96.9152C0.102321 96.7845 0.0513373 96.6537 0 96.523L0.000354051 96.5235ZM11.1214 95.4216C13.387 95.3944 15.1976 94.1577 16.6358 91.8134C18.3246 89.06 19.2575 85.7262 19.9557 82.2483C21.4388 74.8623 21.8378 67.2491 22.0758 59.6226C22.4206 48.5669 22.3395 37.5174 21.4937 26.5027C21.1244 21.6937 20.5732 16.9329 19.4091 12.3675C18.691 9.55201 17.8087 6.86372 16.3196 4.70662C14.8963 2.64489 13.1753 1.59788 11.1214 1.5948V95.4221V95.4216Z" fill="var(--fill-0, black)" style="fill:black;fill-opacity:1;"/>
<path id="Vector_2" d="M59.215 95.5529C60.6192 95.7723 61.9402 95.9677 63.2579 96.201C63.412 96.2282 63.5486 96.4656 63.6931 96.605C63.5419 96.7235 63.3907 96.945 63.2392 96.9455C58.2651 96.9614 53.2914 96.9573 48.3174 96.9491C48.2005 96.9491 48.0837 96.8711 47.9669 96.8296C47.9368 96.7235 47.9063 96.6178 47.8762 96.5117C48.1007 96.3487 48.3174 96.0774 48.5514 96.04C49.7212 95.8549 50.8959 95.7318 52.1871 95.5719C51.359 88.2843 50.539 81.0716 49.7141 73.8127H39.5181C38.6985 81.0141 37.8771 88.2294 37.0426 95.5631C38.2935 95.7206 39.4898 95.8498 40.6812 96.0415C40.8911 96.0754 41.0809 96.3733 41.2799 96.5491C41.0862 96.6866 40.8929 96.9424 40.6989 96.9439C37.7096 96.9691 34.72 96.9691 31.7308 96.9439C31.5393 96.9424 31.3484 96.6922 31.1572 96.5579C31.335 96.4245 31.5053 96.2036 31.6915 96.1718C32.9834 95.9487 34.2789 95.7652 35.6169 95.5621C36.0339 91.8627 36.4464 88.2161 36.8557 84.569C37.5868 78.05 38.3168 71.531 39.0448 65.011C39.881 57.5235 40.7124 50.0349 41.55 42.5474C42.3679 35.2383 43.1904 27.9297 44.0114 20.6216C44.7436 14.1031 45.4906 7.58774 46.1927 1.06209C46.2848 0.201204 46.5248 0.00123544 47.0661 0.000209961C48.5599 -0.001841 48.5422 -0.0238888 48.7737 2.06142C49.8614 11.8445 50.9618 21.6245 52.0529 31.4071C53.0319 40.1852 53.9978 48.9669 54.9824 57.744C55.9627 66.4846 56.9636 75.2202 57.9465 83.9603C58.3774 87.791 58.7859 91.6263 59.215 95.5529ZM49.5084 71.8925C47.9049 57.3661 46.3113 42.9299 44.7177 28.4942C44.6774 28.5019 44.637 28.5101 44.5966 28.5178C42.9733 42.9612 41.35 57.4045 39.7214 71.8925H49.5084Z" fill="var(--fill-0, black)" style="fill:black;fill-opacity:1;"/>
<path id="Vector_3" d="M84.5324 80.6958C83.7535 81.8212 83.1356 83.1984 82.6927 84.6218C81.399 88.211 80.1928 93.4199 79.9563 95.3745H72.0875C74.5542 79.4395 77.0244 63.602 79.4542 47.7512C81.8834 31.9065 84.4077 16.0916 86.7788 0.0868939H67.4455C67.0547 9.13419 67.2696 7.2027 66.867 16.5274C67.2646 16.594 67.8123 16.3069 67.9929 15.9731C68.7718 14.8476 69.3896 13.4704 69.8325 12.0471C71.1836 8.29842 72.2989 3.30844 72.4539 1.58051H79.8277C77.3639 17.5606 74.8919 33.3976 72.4858 49.2551C70.0818 65.0997 67.5684 80.9111 65.2143 96.8876H85.0642L85.0872 96.3943C85.4667 87.5675 85.2578 89.3995 85.6575 80.1415C85.2599 80.0748 84.7122 80.362 84.5317 80.6958H84.5324Z" fill="var(--fill-0, black)" style="fill:black;fill-opacity:1;"/>
<path id="Vector_4" d="M110.762 80.6958C109.983 81.8212 109.366 83.1984 108.923 84.6218C107.629 88.211 106.423 93.4199 106.186 95.3745H98.3175C100.784 79.4395 103.254 63.602 105.684 47.7512C108.113 31.9065 110.638 16.0916 113.009 0.0868939H93.6755C93.2847 9.13419 93.4996 7.2027 93.097 16.5274C93.4946 16.594 94.0423 16.3069 94.2229 15.9731C95.0018 14.8476 95.6196 13.4704 96.0625 12.0471C97.4136 8.29842 98.5289 3.30844 98.6839 1.58051H106.058C103.594 17.5606 101.122 33.3976 98.7158 49.2551C96.3118 65.0997 93.7984 80.9111 91.4443 96.8876H111.294L111.317 96.3943C111.697 87.5675 111.488 89.3995 111.888 80.1415C111.49 80.0748 110.942 80.362 110.762 80.6958H110.762Z" fill="var(--fill-0, black)" style="fill:black;fill-opacity:1;"/>
<path id="Vector_5" d="M136.692 80.6958C135.913 81.8212 135.295 83.1984 134.852 84.6218C133.558 88.211 132.352 93.4199 132.116 95.3745H124.247C126.713 79.4395 129.184 63.602 131.614 47.7512C134.043 31.9065 136.567 16.0916 138.938 0.0868939H119.605C119.214 9.13419 119.429 7.2027 119.026 16.5274C119.424 16.594 119.972 16.3069 120.152 15.9731C120.931 14.8476 121.549 13.4704 121.992 12.0471C123.343 8.29842 124.458 3.30844 124.613 1.58051H131.987C129.523 17.5606 127.051 33.3976 124.645 49.2551C122.241 65.0997 119.728 80.9111 117.374 96.8876H137.223L137.246 96.3943C137.626 87.5675 137.417 89.3995 137.817 80.1415C137.419 80.0748 136.872 80.362 136.691 80.6958H136.692Z" fill="var(--fill-0, black)" style="fill:black;fill-opacity:1;"/>
</g>
</svg>
